<svg xmlns="http://www.w3.org/2000/svg" viewBox="0 0 24 24" fill="currentColor">
  <path d="M9.82,13.87C9.8,13.86 9.79,13.85 9.78,13.85C9.5,13.77 9.22,13.82 9.06,14C8.79,14.27 8.78,14.77 9.04,15.03C9.3,15.29 9.75,15.3 10.02,15.03C10.29,14.77 10.31,14.31 10.04,14.04C9.97,13.97 9.9,13.91 9.82,13.87M14.14,13.87C14.13,13.87 14.13,13.86 14.12,13.85C13.84,13.77 13.56,13.82 13.39,14C13.13,14.27 13.12,14.77 13.38,15.03C13.64,15.29 14.09,15.3 14.36,15.03C14.62,14.77 14.64,14.31 14.38,14.04C14.31,13.97 14.23,13.91 14.14,13.87M20.97,2H3.03C2.46,2 2,2.46 2,3.03V20.97C2,21.54 2.46,22 3.03,22H20.97C21.54,22 22,21.54 22,20.97V3.03C22,2.46 21.54,2 20.97,2M18.92,13.5C18.92,13.5 18.92,13.5 18.92,13.5C18.65,14.74 17.75,15.77 16.56,16.33C15.36,16.88 14.03,16.88 12.83,16.32C11.63,15.77 10.73,14.74 10.46,13.5C10.2,12.26 10.54,10.97 11.4,9.97C12.25,8.97 13.5,8.37 14.83,8.37C16.16,8.37 17.41,8.97 18.26,9.97C19.12,10.97 19.46,12.26 19.2,13.5M14.83,6.37C12.83,6.37 10.94,7.27 9.69,8.77C8.44,10.27 7.94,12.24 8.34,14.13C8.74,16.03 9.97,17.63 11.7,18.48C13.43,19.33 15.42,19.33 17.15,18.48C18.88,17.63 20.11,16.03 20.51,14.13C20.91,12.24 20.41,10.27 19.16,8.77C17.91,7.27 16.02,6.37 14.02,6.37" />
</svg> 