<?xml version="1.0" encoding="UTF-8"?>
<svg width="100" height="40" viewBox="0 0 100 40" xmlns="http://www.w3.org/2000/svg">
  <path d="M50 0C22.386 0 0 8.954 0 20s22.386 20 50 20 50-8.954 50-20S77.614 0 50 0zm0 37.5c-25.405 0-46-7.835-46-17.5S24.595 2.5 50 2.5s46 7.835 46 17.5-20.595 17.5-46 17.5z" fill="#0051BA"/>
  <path d="M21.074 15.384h4.638v6.928h6.152v-6.928h4.638v18.232h-4.638v-7.304h-6.152v7.304h-4.638V15.384zm27.774 14.608h-6.02l-.924 3.624h-4.77l6.02-18.232h5.434l6.02 18.232h-4.836l-.924-3.624zm-.858-3.36l-2.152-8.448-2.152 8.448h4.304zm12.54-11.248h4.638v14.232h8.778v4h-13.416V15.384z" fill="#0051BA"/>
</svg> 