<svg width="23" height="18" viewBox="0 0 23 18" fill="none" xmlns="http://www.w3.org/2000/svg">
  <path fill-rule="evenodd" clip-rule="evenodd" d="M15.3445 0.173079C15.7495 0.0969793 17.111 -0.159021 18.4309 0.145579C20.8251 0.690579 24.1134 2.95818 22.6286 7.78678H22.6247C22.5237 8.47658 22.1739 8.53368 21.7579 8.53368C21.2566 8.53368 20.8562 8.22498 20.8562 7.73708C20.8562 7.31418 21.0351 6.88348 21.0351 6.88348C21.0377 6.87488 21.0411 6.86428 21.0452 6.85148C21.1269 6.59748 21.4735 5.52008 20.7589 3.94518C19.383 1.68148 16.6078 1.64718 16.2815 1.77668C15.951 1.90238 15.4651 1.96718 15.4651 1.96718C14.9637 1.96718 14.5634 1.56708 14.5634 1.08308C14.5634 0.675279 14.8395 0.332379 15.2203 0.225579C15.2203 0.225579 15.232 0.214279 15.2436 0.210379C15.2567 0.208579 15.2697 0.201479 15.2832 0.194179C15.2978 0.186179 15.3129 0.177979 15.3291 0.175979L15.3445 0.173079ZM17.0355 8.76238C16.1415 8.59088 16.5768 8.12218 16.5768 8.12218C16.5768 8.12218 17.4514 6.70828 16.4018 5.67918C15.1037 4.40638 11.9437 5.83938 11.9437 5.83938C10.9192 6.15028 10.9961 5.81138 11.1472 5.14548C11.1738 5.02808 11.2027 4.90058 11.2283 4.76458C11.2283 3.69378 10.8552 1.88358 7.64081 2.95058C4.43041 4.02918 1.67451 7.79818 1.67451 7.79818C-0.241693 10.302 0.0110071 12.238 0.0110071 12.238C0.489007 16.5141 5.12611 17.6878 8.73311 17.9661C12.5268 18.2558 17.6496 16.6855 19.2004 13.4538C20.7552 10.2182 17.9333 8.93768 17.0355 8.76238ZM9.01291 16.7617C5.24641 16.9332 2.19921 15.0849 2.19921 12.623C2.19921 10.1572 5.24641 8.18308 9.01291 8.01148C12.7832 7.84008 15.8344 9.36438 15.8344 11.8225C15.8344 14.2807 12.7832 16.594 9.01291 16.7617ZM4.91221 13.5415C4.91221 13.5415 4.47301 10.0658 8.26281 9.63138C12.0564 9.20058 12.7326 12.7526 11.5782 14.2084C10.4277 15.668 8.14221 16.3807 5.92681 15.2031C4.87341 14.6429 4.91221 13.5415 4.91221 13.5415ZM7.30661 14.5133C6.59921 14.5933 6.02781 14.193 6.02781 13.6138C6.02781 13.0383 6.53301 12.4324 7.24041 12.36C8.05291 12.2838 8.58151 12.7411 8.58151 13.3242C8.58541 13.8997 8.01011 14.4333 7.30661 14.5133ZM8.88071 12.5888C9.00521 12.8021 9.30051 12.8249 9.54151 12.6497C9.77481 12.4666 9.86421 12.1504 9.73971 11.9446C9.61151 11.7389 9.32001 11.6778 9.04011 11.8836C8.79911 12.055 8.74871 12.3828 8.88071 12.5888ZM18.8817 7.25708C19.1887 7.25708 19.4453 7.03598 19.492 6.74638L19.4932 6.73938C19.4966 6.71948 19.4996 6.70208 19.4996 6.68148C19.9622 2.60758 16.0909 3.30888 16.0909 3.30888C15.7489 3.30888 15.4729 3.57938 15.4729 3.92238C15.4729 4.25778 15.7489 4.52838 16.0909 4.52838C18.87 3.92608 18.2598 6.65098 18.2598 6.65098C18.256 6.98638 18.5358 7.25708 18.8817 7.25708Z" fill="#484848"/>
</svg>
