<svg width="23" height="19" viewBox="0 0 23 19" fill="none" xmlns="http://www.w3.org/2000/svg">
  <path fill-rule="evenodd" clip-rule="evenodd" d="M16.0442 5.6333C15.7902 5.6048 15.534 5.5858 15.2752 5.5858C11.4816 5.5858 8.48536 8.4298 8.48536 11.9345C8.48536 12.5171 8.57576 13.0789 8.73186 13.6153C8.48536 13.6346 8.23686 13.647 7.98626 13.647C7.14766 13.647 6.44736 13.5026 5.65146 13.3385H5.65106C5.50086 13.3075 5.34736 13.2758 5.18876 13.2443L2.39696 14.6504L3.19576 12.2374C1.19646 10.8343 0 9.0252 0 6.8222C0 3.0055 3.59616 0 7.98626 0C11.913 0 15.3533 2.4013 16.0442 5.6333ZM11.9807 4.412C11.9807 3.8084 11.5824 3.411 10.9811 3.411C10.3824 3.411 9.78186 3.8082 9.78176 4.412C9.78176 5.0132 10.3824 5.4161 10.9811 5.4161C11.5824 5.4161 11.9807 5.0132 11.9807 4.412ZM5.39176 5.4161C4.79326 5.4161 4.18916 5.0132 4.18916 4.4119C4.18916 3.8083 4.79326 3.411 5.39176 3.411C5.99036 3.411 6.38866 3.8083 6.38866 4.4119C6.38876 5.0132 5.99036 5.4161 5.39176 5.4161ZM15.7806 6.0169C19.3691 6.0169 22.5641 8.631 22.5641 11.8381C22.5641 13.6471 21.3698 15.249 19.7667 16.457L20.3673 18.4617L18.1768 17.2568C17.3781 17.4579 16.5759 17.6594 15.7806 17.6594C11.9807 17.6594 8.98796 15.0507 8.98796 11.8381C8.98796 8.631 11.9807 6.0169 15.7806 6.0169ZM13.5783 10.8344C13.1806 10.8344 12.7795 10.4371 12.7795 10.0317C12.7795 9.6321 13.1806 9.2296 13.5783 9.2296C14.1824 9.2296 14.578 9.6321 14.578 10.0317C14.578 10.4371 14.1824 10.8344 13.5783 10.8344ZM17.1779 10.0317C17.1779 10.4371 17.5762 10.8344 17.9711 10.8344C18.5697 10.8344 18.9707 10.4371 18.9708 10.0317C18.9708 9.6321 18.5697 9.2296 17.9711 9.2296C17.5763 9.2296 17.1779 9.6321 17.1779 10.0317Z" fill="#484848"/>
</svg>
