<svg width="26" height="26" viewBox="0 0 26 26" fill="none" xmlns="http://www.w3.org/2000/svg">
<g clip-path="url(#clip0_14011_1548)">
<path d="M11.0586 12.6322C10.8772 13.0541 10.6547 13.5027 10.4845 13.9582C10.353 14.3123 10.5833 14.5598 10.9469 14.5641C11.3811 14.5686 11.7882 14.5695 12.168 14.5666C12.2018 14.5661 12.2256 14.5503 12.2394 14.5194L12.6493 13.6024C12.6513 13.5979 12.6522 13.5929 12.6518 13.588C12.6514 13.5831 12.6497 13.5783 12.647 13.5742C12.6442 13.57 12.6405 13.5667 12.6361 13.5644C12.6317 13.5621 12.6267 13.561 12.6218 13.5612C12.4018 13.568 12.1803 13.5678 11.9575 13.5603C11.9225 13.5586 11.8996 13.5337 11.8887 13.4855C11.8854 13.4728 11.8866 13.4589 11.8922 13.446L12.7696 11.4763C12.7828 11.4465 12.773 11.4316 12.7404 11.4316H11.7779C11.7591 11.4316 11.7406 11.4268 11.7241 11.4178C11.7076 11.4088 11.6937 11.3958 11.6835 11.38C11.6733 11.3642 11.6673 11.3461 11.6659 11.3273C11.6645 11.3086 11.6679 11.2898 11.6756 11.2727L12.3133 9.84266C12.3322 9.79911 12.3178 9.77734 12.2703 9.77734H11.1772C11.1474 9.77734 11.1268 9.79109 11.1153 9.81859C10.8414 10.4465 10.5421 11.1157 10.2172 11.8261C9.89412 12.5316 10.512 12.5927 11.0096 12.5626C11.0634 12.5591 11.0798 12.5823 11.0586 12.6322Z" stroke="#FF93A0" stroke-width="0.594595"/>
<path d="M17.3321 10.2329L16.6531 10.2286C16.6102 10.2286 16.5887 10.2498 16.5887 10.2922V11.3896C16.5887 11.4177 16.603 11.4317 16.6317 11.4317H17.3192C17.3277 11.4317 17.3362 11.4334 17.3442 11.4367C17.3521 11.44 17.3593 11.4448 17.3653 11.4509C17.3714 11.4569 17.3762 11.4641 17.3795 11.4721C17.3828 11.48 17.3845 11.4885 17.3845 11.4971L17.3836 12.4183C17.3836 12.4349 17.3769 12.4509 17.365 12.4627C17.3531 12.4744 17.3369 12.481 17.32 12.481L16.2235 12.4819C16.2146 12.4819 16.206 12.4854 16.1998 12.4917C16.1935 12.498 16.1899 12.5065 16.1899 12.5154L16.1925 13.6412C16.1925 13.6508 16.1963 13.6599 16.2031 13.6667C16.2099 13.6735 16.219 13.6773 16.2286 13.6773L17.3295 13.6781C17.3365 13.6781 17.3434 13.6795 17.3499 13.6821C17.3563 13.6848 17.3622 13.6886 17.3671 13.6935C17.3721 13.6984 17.376 13.7041 17.3787 13.7105C17.3814 13.7169 17.3828 13.7237 17.3828 13.7306V16.1583C17.3828 16.2013 17.4042 16.2228 17.4472 16.2228H18.518C18.5529 16.2228 18.5704 16.205 18.5704 16.1695V13.7271C18.5704 13.7207 18.5717 13.7143 18.5741 13.7084C18.5766 13.7024 18.5802 13.697 18.5848 13.6925C18.5893 13.6879 18.5947 13.6843 18.6006 13.6819C18.6066 13.6794 18.613 13.6781 18.6194 13.6781C19.1654 13.6736 19.7251 13.6733 20.2986 13.6773C20.5908 13.679 20.7403 13.8191 20.7472 14.0975C20.7541 14.4 20.7527 14.6936 20.7429 14.9784C20.7411 15.036 20.717 15.0906 20.6756 15.1307C20.6342 15.1708 20.5788 15.1933 20.5212 15.1932L19.618 15.1941C19.5773 15.1941 19.565 15.2127 19.581 15.2499L19.9772 16.1609C19.991 16.1935 20.0156 16.211 20.0511 16.2133C20.9406 16.2769 21.922 16.2417 21.934 15.0566C21.9374 14.7134 21.9409 14.3866 21.9443 14.076C21.9489 13.6349 21.9105 13.3235 21.8292 13.1419C21.6238 12.6821 21.1356 12.4613 20.5985 12.4819C20.555 12.4836 20.5341 12.4627 20.5358 12.4192C20.5587 11.9551 20.5524 11.5939 20.5169 11.3355C20.4086 10.5595 19.7641 10.2252 19.0207 10.2286C18.8901 10.2298 18.7595 10.2303 18.6288 10.2303C18.5882 10.2303 18.5678 10.2097 18.5678 10.1685L18.5721 9.82729C18.5727 9.79692 18.5578 9.78174 18.5274 9.78174H17.4343C17.4206 9.78174 17.4075 9.78717 17.3979 9.79684C17.3882 9.80651 17.3828 9.81963 17.3828 9.8333V10.1822C17.3828 10.216 17.3659 10.2329 17.3321 10.2329Z" stroke="#FF93A0" stroke-width="0.594595"/>
<path d="M6.21855 15.1813C6.19121 15.2014 6.15838 15.2122 6.12488 15.2122H5.53879C5.53348 15.2122 5.52825 15.2135 5.52357 15.216C5.5189 15.2185 5.51492 15.2221 5.51202 15.2266C5.50911 15.231 5.50737 15.2361 5.50694 15.2414C5.50651 15.2467 5.50741 15.252 5.50957 15.2569L5.91175 16.1704C5.92436 16.1985 5.94584 16.2136 5.97621 16.2159C6.93441 16.2881 7.49644 16.0681 7.49472 14.9836C7.49128 13.101 7.48785 11.4026 7.48441 9.88836C7.48441 9.86773 7.4741 9.85742 7.45347 9.85742L6.3423 9.85828C6.3341 9.85828 6.32623 9.86154 6.32042 9.86734C6.31462 9.87314 6.31136 9.88101 6.31136 9.88922C6.30449 11.7054 6.29962 13.4227 6.29675 15.0412C6.29675 15.0956 6.27069 15.1423 6.21855 15.1813Z" stroke="#FF93A0" stroke-width="0.594595"/>
<path d="M15.108 11.4575C15.108 11.4505 15.1108 11.4437 15.1158 11.4387C15.1208 11.4337 15.1276 11.4309 15.1346 11.4309L15.8342 11.4318C15.8412 11.4318 15.848 11.429 15.853 11.424C15.858 11.419 15.8608 11.4122 15.8608 11.4051L15.8599 10.2561C15.8599 10.2491 15.8571 10.2423 15.8521 10.2373C15.8471 10.2323 15.8404 10.2295 15.8333 10.2295H13.1598C13.1527 10.2295 13.1459 10.2323 13.1409 10.2373C13.1359 10.2423 13.1331 10.2491 13.1331 10.2561V11.4043C13.1331 11.4113 13.1359 11.4181 13.1409 11.4231C13.1459 11.4281 13.1527 11.4309 13.1598 11.4309L13.8559 11.4318C13.8629 11.4318 13.8697 11.4346 13.8747 11.4396C13.8797 11.4446 13.8825 11.4513 13.8825 11.4584V14.9939C13.8825 15.0009 13.8797 15.0077 13.8747 15.0127C13.8697 15.0177 13.8629 15.0205 13.8559 15.0205H12.8306C12.8256 15.0205 12.8206 15.022 12.8164 15.0247C12.8121 15.0275 12.8087 15.0314 12.8066 15.036L12.2832 16.1841C12.2813 16.1882 12.2805 16.1926 12.2808 16.1971C12.2811 16.2015 12.2825 16.2058 12.2849 16.2096C12.2873 16.2133 12.2906 16.2164 12.2945 16.2186C12.2984 16.2208 12.3028 16.2219 12.3073 16.2219H16.2355C16.2425 16.2219 16.2493 16.2191 16.2543 16.2141C16.2593 16.2091 16.2621 16.2023 16.2621 16.1953L16.263 15.0471C16.263 15.0401 16.2602 15.0333 16.2552 15.0283C16.2502 15.0233 16.2434 15.0205 16.2363 15.0205L15.1346 15.0214C15.1311 15.0214 15.1277 15.0207 15.1244 15.0193C15.1212 15.018 15.1183 15.016 15.1158 15.0136C15.1133 15.0111 15.1114 15.0082 15.11 15.0049C15.1087 15.0017 15.108 14.9982 15.108 14.9947V11.4575Z" stroke="#FF93A0" stroke-width="0.594595"/>
<path d="M21.7355 10.3814C21.3539 10.0308 20.8005 10.2937 20.7575 10.787C20.742 10.9686 20.7389 11.1646 20.748 11.3748C20.7492 11.4086 20.7669 11.4249 20.8013 11.4238C21.0901 11.4118 21.4562 11.4831 21.6976 11.2923C21.9993 11.0526 22.0165 10.6392 21.7355 10.3814Z" stroke="#FF93A0" stroke-width="0.594595"/>
<path d="M4.0452 14.3498L4.61067 15.6157C4.61378 15.6229 4.61877 15.629 4.62511 15.6336C4.63145 15.6381 4.63891 15.6408 4.64668 15.6414C4.65445 15.642 4.66224 15.6405 4.66922 15.6371C4.6762 15.6336 4.6821 15.6283 4.6863 15.6217C5.04437 15.074 5.25348 14.4736 5.31364 13.8205C5.38411 13.0505 5.44656 12.2624 5.50098 11.4563C5.50213 11.4386 5.49411 11.4297 5.47692 11.4297H4.36489C4.33281 11.4297 4.31533 11.4457 4.31247 11.4778C4.25289 12.2776 4.19187 13.0762 4.12942 13.8737C4.11911 14.0087 4.08473 14.129 4.04091 14.257C4.03002 14.2885 4.03145 14.3195 4.0452 14.3498Z" stroke="#FF93A0" stroke-width="0.594595"/>
<path d="M9.17652 15.6209L9.74628 14.3455C9.75889 14.3163 9.76003 14.2868 9.74972 14.257C9.70761 14.1333 9.66808 14.0241 9.65863 13.8901C9.60363 13.1579 9.54261 12.3555 9.47558 11.483C9.47272 11.4474 9.45352 11.4297 9.418 11.4297H8.33949C8.30225 11.4297 8.28477 11.448 8.28706 11.4847C8.36441 12.6546 8.43946 13.5231 8.51222 14.0903C8.58097 14.6203 8.7792 15.1322 9.10691 15.626C9.11073 15.6321 9.11614 15.637 9.12254 15.6402C9.12895 15.6434 9.13611 15.6449 9.14326 15.6443C9.15041 15.6438 9.15729 15.6413 9.16315 15.6372C9.169 15.6331 9.17363 15.6274 9.17652 15.6209Z" stroke="#FF93A0" stroke-width="0.594595"/>
<path d="M10.2911 14.9603L9.77804 16.0775C9.7755 16.0831 9.7741 16.0891 9.77394 16.0952C9.77378 16.1013 9.77486 16.1074 9.7771 16.1131C9.77935 16.1188 9.78272 16.124 9.78701 16.1284C9.79131 16.1327 9.79644 16.1362 9.8021 16.1385C9.92986 16.1924 10.0645 16.2196 10.206 16.2201C10.6643 16.223 11.123 16.2233 11.5819 16.221C11.618 16.2204 11.6435 16.2041 11.6584 16.172L12.1628 15.0634C12.1651 15.0586 12.1661 15.0532 12.1658 15.0478C12.1654 15.0424 12.1636 15.0372 12.1606 15.0327C12.1576 15.0281 12.1534 15.0244 12.1486 15.0218C12.1437 15.0192 12.1382 15.0179 12.1327 15.0179C11.7053 15.0225 11.2851 15.0222 10.872 15.017C10.6959 15.0153 10.5205 14.9835 10.3521 14.9328C10.324 14.9242 10.3037 14.9334 10.2911 14.9603Z" stroke="#FF93A0" stroke-width="0.594595"/>
<path d="M18.6614 11.4307C18.5967 11.4307 18.5646 11.463 18.5652 11.5278L18.5678 12.443C18.5678 12.4699 18.5815 12.4834 18.609 12.4834H19.3386C19.3667 12.4834 19.3807 12.4691 19.3807 12.4404L19.379 11.5819C19.379 11.5424 19.3634 11.5045 19.3355 11.4765C19.3077 11.4485 19.2699 11.4326 19.2303 11.4324L18.6614 11.4307Z" stroke="#FF93A0" stroke-width="0.594595"/>
<path d="M4.80414 2H21.207C21.5198 2.0424 21.7418 2.0868 21.873 2.1332C23.1266 2.57549 23.8356 3.46581 24 4.80414V21.207C23.9588 21.5153 23.9143 21.7373 23.8668 21.873C23.4245 23.1272 22.5342 23.8361 21.1959 24H4.79297C4.48245 23.9582 4.26044 23.9138 4.12695 23.8668C2.87284 23.4245 2.16385 22.5342 2 21.1959V4.79297C2.02521 4.64974 2.05586 4.50823 2.09195 4.36844C2.45461 2.97797 3.35867 2.18849 4.80414 2ZM11.0587 12.6322C10.8773 13.0541 10.6548 13.5027 10.4846 13.9582C10.3531 14.3123 10.5834 14.5598 10.947 14.5641C11.3812 14.5686 11.7883 14.5695 12.1681 14.5666C12.2019 14.5661 12.2257 14.5503 12.2395 14.5194L12.6494 13.6024C12.6514 13.5979 12.6523 13.5929 12.6519 13.588C12.6515 13.5831 12.6498 13.5783 12.6471 13.5742C12.6443 13.57 12.6406 13.5667 12.6362 13.5644C12.6317 13.5621 12.6268 13.561 12.6219 13.5612C12.4019 13.568 12.1804 13.5678 11.9576 13.5603C11.9226 13.5586 11.8997 13.5337 11.8888 13.4855C11.8855 13.4728 11.8867 13.4589 11.8923 13.446L12.7697 11.4763C12.7829 11.4465 12.7731 11.4316 12.7405 11.4316H11.778C11.7592 11.4316 11.7407 11.4268 11.7242 11.4178C11.7077 11.4088 11.6938 11.3958 11.6836 11.38C11.6734 11.3642 11.6674 11.3461 11.666 11.3273C11.6646 11.3086 11.668 11.2898 11.6757 11.2727L12.3134 9.84266C12.3323 9.79911 12.3179 9.77734 12.2704 9.77734H11.1773C11.1475 9.77734 11.1268 9.79109 11.1154 9.81859C10.8415 10.4465 10.5422 11.1157 10.2173 11.8261C9.89422 12.5316 10.5121 12.5927 11.0097 12.5626C11.0635 12.5591 11.0799 12.5823 11.0587 12.6322ZM17.3321 10.2328L16.6532 10.2285C16.6102 10.2285 16.5887 10.2497 16.5887 10.2921V11.3895C16.5887 11.4176 16.6031 11.4316 16.6317 11.4316H17.3192C17.3278 11.4316 17.3363 11.4333 17.3442 11.4366C17.3521 11.4399 17.3593 11.4447 17.3654 11.4508C17.3715 11.4568 17.3763 11.464 17.3796 11.472C17.3828 11.4799 17.3845 11.4884 17.3845 11.497L17.3837 12.4182C17.3837 12.4348 17.377 12.4508 17.365 12.4626C17.3531 12.4743 17.3369 12.4809 17.3201 12.4809L16.2235 12.4818C16.2146 12.4818 16.2061 12.4853 16.1998 12.4916C16.1935 12.4979 16.19 12.5064 16.19 12.5153L16.1926 13.6411C16.1926 13.6507 16.1964 13.6598 16.2031 13.6666C16.2099 13.6734 16.2191 13.6772 16.2287 13.6772L17.3295 13.678C17.3365 13.678 17.3435 13.6794 17.3499 13.682C17.3564 13.6847 17.3623 13.6885 17.3672 13.6934C17.3722 13.6983 17.3761 13.704 17.3788 13.7104C17.3814 13.7168 17.3828 13.7236 17.3828 13.7305V16.1582C17.3828 16.2012 17.4043 16.2227 17.4473 16.2227H18.518C18.553 16.2227 18.5705 16.2049 18.5705 16.1694V13.727C18.5705 13.7206 18.5717 13.7142 18.5742 13.7083C18.5767 13.7023 18.5803 13.6969 18.5848 13.6924C18.5894 13.6878 18.5948 13.6842 18.6007 13.6818C18.6067 13.6793 18.613 13.678 18.6195 13.678C19.1654 13.6735 19.7252 13.6732 20.2987 13.6772C20.5909 13.6789 20.7404 13.819 20.7473 14.0974C20.7541 14.3999 20.7527 14.6935 20.743 14.9783C20.7412 15.0359 20.717 15.0905 20.6756 15.1306C20.6343 15.1707 20.5789 15.1932 20.5213 15.1931L19.618 15.194C19.5774 15.194 19.5651 15.2126 19.5811 15.2498L19.9773 16.1608C19.991 16.1934 20.0157 16.2109 20.0512 16.2132C20.9406 16.2768 21.922 16.2416 21.9341 15.0565C21.9375 14.7133 21.9409 14.3865 21.9444 14.0759C21.949 13.6348 21.9106 13.3234 21.8292 13.1418C21.6238 12.682 21.1357 12.4612 20.5986 12.4818C20.5551 12.4835 20.5341 12.4626 20.5359 12.4191C20.5588 11.955 20.5525 11.5938 20.517 11.3354C20.4087 10.5594 19.7641 10.2251 19.0208 10.2285C18.8902 10.2297 18.7595 10.2302 18.6289 10.2302C18.5882 10.2302 18.5679 10.2096 18.5679 10.1684L18.5722 9.82719C18.5728 9.79682 18.5579 9.78164 18.5275 9.78164H17.4344C17.4207 9.78164 17.4076 9.78707 17.3979 9.79674C17.3882 9.80641 17.3828 9.81953 17.3828 9.8332V10.1821C17.3828 10.2159 17.3659 10.2328 17.3321 10.2328ZM6.21867 15.1811C6.19133 15.2012 6.15851 15.212 6.125 15.212H5.53891C5.5336 15.212 5.52837 15.2133 5.52369 15.2158C5.51902 15.2183 5.51505 15.222 5.51214 15.2264C5.50924 15.2309 5.50749 15.236 5.50706 15.2413C5.50663 15.2466 5.50754 15.2519 5.50969 15.2567L5.91187 16.1702C5.92448 16.1983 5.94596 16.2135 5.97633 16.2158C6.93453 16.288 7.49656 16.068 7.49484 14.9834C7.49141 13.1008 7.48797 11.4024 7.48453 9.8882C7.48453 9.86758 7.47422 9.85727 7.45359 9.85727L6.34242 9.85813C6.33422 9.85813 6.32635 9.86138 6.32055 9.86719C6.31474 9.87299 6.31148 9.88086 6.31148 9.88906C6.30461 11.7052 6.29974 13.4225 6.29688 15.041C6.29688 15.0954 6.27081 15.1421 6.21867 15.1811ZM15.108 11.4574C15.108 11.4504 15.1109 11.4436 15.1159 11.4386C15.1208 11.4336 15.1276 11.4308 15.1347 11.4308L15.8342 11.4316C15.8413 11.4316 15.8481 11.4288 15.8531 11.4238C15.8581 11.4188 15.8609 11.4121 15.8609 11.405L15.86 10.256C15.86 10.249 15.8572 10.2422 15.8522 10.2372C15.8472 10.2322 15.8404 10.2294 15.8334 10.2294H13.1598C13.1528 10.2294 13.146 10.2322 13.141 10.2372C13.136 10.2422 13.1332 10.249 13.1332 10.256V11.4041C13.1332 11.4112 13.136 11.418 13.141 11.423C13.146 11.428 13.1528 11.4308 13.1598 11.4308L13.8559 11.4316C13.863 11.4316 13.8698 11.4344 13.8748 11.4394C13.8798 11.4444 13.8826 11.4512 13.8826 11.4583V14.9937C13.8826 15.0008 13.8798 15.0076 13.8748 15.0126C13.8698 15.0176 13.863 15.0204 13.8559 15.0204H12.8307C12.8256 15.0204 12.8207 15.0219 12.8164 15.0246C12.8122 15.0274 12.8088 15.0313 12.8066 15.0359L12.2833 16.184C12.2814 16.188 12.2806 16.1925 12.2809 16.1969C12.2812 16.2014 12.2826 16.2057 12.285 16.2095C12.2874 16.2132 12.2907 16.2163 12.2946 16.2185C12.2985 16.2206 12.3029 16.2218 12.3073 16.2218H16.2355C16.2426 16.2218 16.2494 16.219 16.2544 16.214C16.2594 16.209 16.2622 16.2022 16.2622 16.1952L16.263 15.047C16.263 15.04 16.2602 15.0332 16.2552 15.0282C16.2502 15.0232 16.2435 15.0204 16.2364 15.0204L15.1347 15.0213C15.1312 15.0213 15.1277 15.0206 15.1245 15.0192C15.1213 15.0179 15.1183 15.0159 15.1159 15.0134C15.1134 15.011 15.1114 15.008 15.1101 15.0048C15.1087 15.0016 15.108 14.9981 15.108 14.9946V11.4574ZM21.7355 10.3815C21.354 10.0309 20.8005 10.2938 20.7576 10.7871C20.7421 10.9687 20.739 11.1647 20.7481 11.3749C20.7493 11.4087 20.767 11.4251 20.8014 11.4239C21.0902 11.4119 21.4563 11.4832 21.6977 11.2924C21.9994 11.0527 22.0166 10.6393 21.7355 10.3815ZM4.04531 14.3501L4.61078 15.6159C4.61389 15.6231 4.61888 15.6293 4.62522 15.6338C4.63156 15.6383 4.63902 15.641 4.64679 15.6417C4.65456 15.6423 4.66235 15.6408 4.66933 15.6373C4.67631 15.6338 4.68221 15.6285 4.68641 15.622C5.04448 15.0742 5.25359 14.4738 5.31375 13.8207C5.38422 13.0507 5.44667 12.2627 5.50109 11.4566C5.50224 11.4388 5.49422 11.4299 5.47703 11.4299H4.365C4.33292 11.4299 4.31544 11.446 4.31258 11.478C4.25299 12.2778 4.19198 13.0765 4.12953 13.874C4.11922 14.0089 4.08484 14.1292 4.04102 14.2573C4.03013 14.2888 4.03156 14.3197 4.04531 14.3501ZM9.17664 15.6211L9.74641 14.3458C9.75901 14.3166 9.76016 14.2871 9.74984 14.2573C9.70773 14.1335 9.6682 14.0244 9.65875 13.8903C9.60375 13.1581 9.54273 12.3558 9.4757 11.4832C9.47284 11.4477 9.45365 11.4299 9.41813 11.4299H8.33961C8.30237 11.4299 8.2849 11.4483 8.28719 11.4849C8.36453 12.6548 8.43958 13.5234 8.51234 14.0905C8.58109 14.6205 8.77932 15.1324 9.10703 15.6262C9.11086 15.6323 9.11626 15.6372 9.12267 15.6405C9.12907 15.6437 9.13623 15.6451 9.14339 15.6446C9.15054 15.644 9.15741 15.6416 9.16327 15.6374C9.16913 15.6333 9.17375 15.6277 9.17664 15.6211ZM10.2913 14.9602L9.7782 16.0774C9.77566 16.083 9.77427 16.089 9.77411 16.0951C9.77395 16.1013 9.77502 16.1073 9.77727 16.113C9.77951 16.1187 9.78288 16.1239 9.78718 16.1283C9.79148 16.1326 9.79661 16.1361 9.80227 16.1384C9.93003 16.1923 10.0647 16.2195 10.2062 16.2201C10.6645 16.2229 11.1231 16.2232 11.582 16.2209C11.6181 16.2204 11.6436 16.204 11.6585 16.172L12.163 15.0634C12.1653 15.0585 12.1663 15.0531 12.1659 15.0477C12.1655 15.0424 12.1638 15.0372 12.1607 15.0326C12.1577 15.0281 12.1536 15.0243 12.1487 15.0217C12.1439 15.0191 12.1384 15.0178 12.1329 15.0178C11.7055 15.0224 11.2853 15.0221 10.8722 15.017C10.696 15.0152 10.5207 14.9834 10.3523 14.9327C10.3242 14.9241 10.3039 14.9333 10.2913 14.9602Z" fill="#565656"/>
<path d="M11.0096 12.5626C10.512 12.5927 9.89412 12.5316 10.2172 11.8261C10.5421 11.1157 10.8414 10.4465 11.1153 9.81859C11.1268 9.79109 11.1474 9.77734 11.1772 9.77734H12.2703C12.3178 9.77734 12.3322 9.79911 12.3133 9.84266L11.6756 11.2727C11.6679 11.2898 11.6645 11.3086 11.6659 11.3273C11.6673 11.3461 11.6733 11.3642 11.6835 11.38C11.6937 11.3958 11.7076 11.4088 11.7241 11.4178C11.7406 11.4268 11.7591 11.4316 11.7779 11.4316H12.7404C12.773 11.4316 12.7828 11.4465 12.7696 11.4763L11.8922 13.446C11.8866 13.4589 11.8854 13.4728 11.8887 13.4855C11.8996 13.5337 11.9225 13.5586 11.9575 13.5603C12.1803 13.5678 12.4018 13.568 12.6218 13.5612C12.6267 13.561 12.6317 13.5621 12.6361 13.5644C12.6405 13.5667 12.6442 13.57 12.647 13.5742C12.6497 13.5783 12.6514 13.5831 12.6518 13.588C12.6522 13.5929 12.6513 13.5979 12.6493 13.6024L12.2394 14.5194C12.2256 14.5503 12.2018 14.5661 12.168 14.5666C11.7882 14.5695 11.3811 14.5686 10.9469 14.5641C10.5833 14.5598 10.353 14.3123 10.4845 13.9582C10.6547 13.5027 10.8772 13.0541 11.0586 12.6322C11.0798 12.5823 11.0634 12.5591 11.0096 12.5626Z" fill="white"/>
<path d="M17.3828 10.1822V9.8333C17.3828 9.81963 17.3882 9.80651 17.3979 9.79684C17.4075 9.78717 17.4206 9.78174 17.4343 9.78174H18.5274C18.5578 9.78174 18.5727 9.79692 18.5721 9.82729L18.5678 10.1685C18.5678 10.2097 18.5882 10.2303 18.6288 10.2303C18.7595 10.2303 18.8901 10.2298 19.0207 10.2286C19.7641 10.2252 20.4086 10.5595 20.5169 11.3355C20.5524 11.5939 20.5587 11.9551 20.5358 12.4192C20.5341 12.4627 20.555 12.4836 20.5985 12.4819C21.1356 12.4613 21.6238 12.6821 21.8292 13.1419C21.9105 13.3235 21.9489 13.6349 21.9443 14.076C21.9409 14.3866 21.9374 14.7134 21.934 15.0566C21.922 16.2417 20.9406 16.2769 20.0511 16.2133C20.0156 16.211 19.991 16.1935 19.9772 16.1609L19.581 15.2499C19.565 15.2127 19.5773 15.1941 19.618 15.1941L20.5212 15.1932C20.5788 15.1933 20.6342 15.1708 20.6756 15.1307C20.717 15.0906 20.7411 15.036 20.7429 14.9784C20.7527 14.6936 20.7541 14.4 20.7472 14.0975C20.7403 13.8191 20.5908 13.679 20.2986 13.6773C19.7251 13.6733 19.1654 13.6736 18.6194 13.6781C18.613 13.6781 18.6066 13.6794 18.6006 13.6819C18.5947 13.6843 18.5893 13.6879 18.5848 13.6925C18.5802 13.697 18.5766 13.7024 18.5741 13.7084C18.5717 13.7143 18.5704 13.7207 18.5704 13.7271V16.1695C18.5704 16.205 18.5529 16.2228 18.518 16.2228H17.4472C17.4042 16.2228 17.3828 16.2013 17.3828 16.1583V13.7306C17.3828 13.7237 17.3814 13.7169 17.3787 13.7105C17.376 13.7041 17.3721 13.6984 17.3671 13.6935C17.3622 13.6886 17.3563 13.6848 17.3499 13.6821C17.3434 13.6795 17.3365 13.6781 17.3295 13.6781L16.2286 13.6773C16.219 13.6773 16.2099 13.6735 16.2031 13.6667C16.1963 13.6599 16.1925 13.6508 16.1925 13.6412L16.1899 12.5154C16.1899 12.5065 16.1935 12.498 16.1998 12.4917C16.206 12.4854 16.2146 12.4819 16.2235 12.4819L17.32 12.481C17.3369 12.481 17.3531 12.4744 17.365 12.4627C17.3769 12.4509 17.3836 12.4349 17.3836 12.4183L17.3845 11.4971C17.3845 11.4885 17.3828 11.48 17.3795 11.4721C17.3762 11.4641 17.3714 11.4569 17.3653 11.4509C17.3593 11.4448 17.3521 11.44 17.3442 11.4367C17.3362 11.4334 17.3277 11.4317 17.3192 11.4317H16.6317C16.603 11.4317 16.5887 11.4177 16.5887 11.3896V10.2922C16.5887 10.2498 16.6102 10.2286 16.6531 10.2286L17.3321 10.2329C17.3659 10.2329 17.3828 10.216 17.3828 10.1822ZM18.6615 11.4309C18.5968 11.4309 18.5647 11.4632 18.5653 11.528L18.5678 12.4432C18.5678 12.4701 18.5816 12.4836 18.6091 12.4836H19.3387C19.3668 12.4836 19.3808 12.4693 19.3808 12.4406L19.3791 11.5821C19.3791 11.5426 19.3634 11.5047 19.3356 11.4767C19.3077 11.4487 19.2699 11.4328 19.2304 11.4326L18.6615 11.4309Z" fill="white"/>
<path d="M6.21855 15.1813C6.27069 15.1423 6.29675 15.0956 6.29675 15.0412C6.29962 13.4227 6.30449 11.7054 6.31136 9.88922C6.31136 9.88101 6.31462 9.87314 6.32042 9.86734C6.32623 9.86154 6.3341 9.85828 6.3423 9.85828L7.45347 9.85742C7.4741 9.85742 7.48441 9.86773 7.48441 9.88836C7.48785 11.4026 7.49128 13.101 7.49472 14.9836C7.49644 16.0681 6.93441 16.2881 5.97621 16.2159C5.94584 16.2136 5.92436 16.1985 5.91175 16.1704L5.50957 15.2569C5.50741 15.252 5.50651 15.2467 5.50694 15.2414C5.50737 15.2361 5.50911 15.231 5.51202 15.2266C5.51492 15.2221 5.5189 15.2185 5.52357 15.216C5.52825 15.2135 5.53348 15.2122 5.53879 15.2122H6.12488C6.15838 15.2122 6.19121 15.2014 6.21855 15.1813Z" fill="white"/>
<path d="M15.108 11.4575V14.9947C15.108 14.9982 15.1087 15.0017 15.11 15.0049C15.1114 15.0082 15.1133 15.0111 15.1158 15.0136C15.1183 15.016 15.1212 15.018 15.1244 15.0193C15.1277 15.0207 15.1311 15.0214 15.1346 15.0214L16.2363 15.0205C16.2434 15.0205 16.2502 15.0233 16.2552 15.0283C16.2602 15.0333 16.263 15.0401 16.263 15.0471L16.2621 16.1953C16.2621 16.2023 16.2593 16.2091 16.2543 16.2141C16.2493 16.2191 16.2425 16.2219 16.2355 16.2219H12.3073C12.3028 16.2219 12.2984 16.2208 12.2945 16.2186C12.2906 16.2164 12.2873 16.2133 12.2849 16.2096C12.2825 16.2058 12.2811 16.2015 12.2808 16.1971C12.2805 16.1926 12.2813 16.1882 12.2832 16.1841L12.8066 15.036C12.8087 15.0314 12.8121 15.0275 12.8164 15.0247C12.8206 15.022 12.8256 15.0205 12.8306 15.0205H13.8559C13.8629 15.0205 13.8697 15.0177 13.8747 15.0127C13.8797 15.0077 13.8825 15.0009 13.8825 14.9939V11.4584C13.8825 11.4513 13.8797 11.4446 13.8747 11.4396C13.8697 11.4346 13.8629 11.4318 13.8559 11.4318L13.1598 11.4309C13.1527 11.4309 13.1459 11.4281 13.1409 11.4231C13.1359 11.4181 13.1331 11.4113 13.1331 11.4043V10.2561C13.1331 10.2491 13.1359 10.2423 13.1409 10.2373C13.1459 10.2323 13.1527 10.2295 13.1598 10.2295H15.8333C15.8404 10.2295 15.8471 10.2323 15.8521 10.2373C15.8571 10.2423 15.8599 10.2491 15.8599 10.2561L15.8608 11.4051C15.8608 11.4122 15.858 11.419 15.853 11.424C15.848 11.429 15.8412 11.4318 15.8342 11.4318L15.1346 11.4309C15.1276 11.4309 15.1208 11.4337 15.1158 11.4387C15.1108 11.4437 15.108 11.4505 15.108 11.4575Z" fill="white"/>
<path d="M21.7355 10.3814C22.0165 10.6392 21.9993 11.0526 21.6976 11.2923C21.4562 11.4831 21.0901 11.4118 20.8013 11.4238C20.7669 11.4249 20.7492 11.4086 20.748 11.3748C20.7389 11.1646 20.742 10.9686 20.7575 10.787C20.8005 10.2937 21.3539 10.0308 21.7355 10.3814Z" fill="white"/>
<path d="M4.61067 15.6157L4.0452 14.3498C4.03145 14.3195 4.03002 14.2885 4.04091 14.257C4.08473 14.129 4.11911 14.0087 4.12942 13.8737C4.19187 13.0762 4.25289 12.2776 4.31247 11.4778C4.31533 11.4457 4.33281 11.4297 4.36489 11.4297H5.47692C5.49411 11.4297 5.50213 11.4386 5.50098 11.4563C5.44656 12.2624 5.38411 13.0505 5.31364 13.8205C5.25348 14.4736 5.04437 15.074 4.6863 15.6217C4.6821 15.6283 4.6762 15.6336 4.66922 15.6371C4.66224 15.6405 4.65445 15.642 4.64668 15.6414C4.63891 15.6408 4.63145 15.6381 4.62511 15.6336C4.61877 15.629 4.61378 15.6229 4.61067 15.6157Z" fill="white"/>
<path d="M9.74653 14.3455L9.17676 15.6209C9.17387 15.6274 9.16925 15.6331 9.16339 15.6372C9.15753 15.6413 9.15066 15.6438 9.14351 15.6443C9.13635 15.6449 9.12919 15.6434 9.12279 15.6402C9.11638 15.637 9.11098 15.6321 9.10715 15.626C8.77944 15.1322 8.58121 14.6203 8.51246 14.0903C8.4397 13.5231 8.36465 12.6546 8.28731 11.4847C8.28502 11.448 8.30249 11.4297 8.33973 11.4297H9.41825C9.45377 11.4297 9.47296 11.4474 9.47582 11.483C9.54286 12.3555 9.60387 13.1579 9.65887 13.8901C9.66832 14.0241 9.70786 14.1333 9.74996 14.257C9.76028 14.2868 9.75913 14.3163 9.74653 14.3455Z" fill="white"/>
<path d="M18.6614 11.4307L19.2303 11.4324C19.2699 11.4326 19.3077 11.4485 19.3355 11.4765C19.3634 11.5045 19.379 11.5424 19.379 11.5819L19.3807 12.4404C19.3807 12.4691 19.3667 12.4834 19.3386 12.4834H18.609C18.5815 12.4834 18.5678 12.4699 18.5678 12.443L18.5652 11.5278C18.5646 11.463 18.5967 11.4307 18.6614 11.4307Z" fill="#565656"/>
<path d="M9.77828 16.0775L10.2913 14.9603C10.3039 14.9334 10.3243 14.9242 10.3523 14.9328C10.5208 14.9835 10.6961 15.0153 10.8723 15.017C11.2853 15.0222 11.7056 15.0225 12.133 15.0179C12.1385 15.0179 12.1439 15.0192 12.1488 15.0218C12.1537 15.0244 12.1578 15.0281 12.1608 15.0327C12.1638 15.0372 12.1656 15.0424 12.166 15.0478C12.1664 15.0532 12.1654 15.0586 12.163 15.0634L11.6586 16.172C11.6437 16.2041 11.6182 16.2204 11.5821 16.221C11.1232 16.2233 10.6646 16.223 10.2063 16.2201C10.0647 16.2196 9.9301 16.1924 9.80234 16.1385C9.79668 16.1362 9.79155 16.1327 9.78726 16.1284C9.78296 16.124 9.77959 16.1188 9.77735 16.1131C9.7751 16.1074 9.77402 16.1013 9.77419 16.0952C9.77435 16.0891 9.77574 16.0831 9.77828 16.0775Z" fill="white"/>
</g>
<defs>
<clipPath id="clip0_14011_1548">
<rect width="22" height="22" fill="white" transform="translate(2 2)"/>
</clipPath>
</defs>
</svg>
